<svg>
    <symbol id="icon-logo" width="33" height="28" viewBox="0 0 33 28" fill="none" xmlns="http://www.w3.org/2000/svg">
        <path d="M16.2436 7.09621C14.7531 7.93737 12.6466 7.96264 11.1376 7.15815C10.0953 6.60241 8.9154 6.28904 7.66565 6.28904C3.43204 6.28904 0 9.88465 0 14.32C0 18.7554 3.43204 22.3509 7.66565 22.3509C8.97908 22.3509 10.2154 22.0048 11.296 21.395C12.7864 20.5538 14.893 20.5286 16.4019 21.3331C17.4443 21.8888 18.6242 28 19.8739 28C24.1076 28 33 18.6066 33 14.1713C33 9.73585 24.1076 0 19.8739 0C18.5605 0 17.3242 6.48636 16.2436 7.09621Z" fill="#FC6D3E"/>
    </symbol>
    <symbol id="icon-search" width="24" height="24" viewBox="0 0 24 24" fill="none" xmlns="http://www.w3.org/2000/svg">
        <path d="M11.5 20C16.1944 20 20 16.1944 20 11.5C20 6.80558 16.1944 3 11.5 3C6.80558 3 3 6.80558 3 11.5C3 16.1944 6.80558 20 11.5 20Z" stroke="#AAAAAA" stroke-width="2" stroke-linecap="round" stroke-linejoin="round"/>
        <path d="M20.9999 21L17.5 17.5001" stroke="#AAAAAA" stroke-width="2" stroke-linecap="round" stroke-linejoin="round"/>
    </symbol>
    <symbol id="icon-arrow" width="16" height="16" viewBox="0 0 16 16" fill="none" xmlns="http://www.w3.org/2000/svg">
        <path fill-rule="evenodd" clip-rule="evenodd" d="M5.52864 3.52861C5.78899 3.26826 6.2111 3.26826 6.47145 3.52861L10.4714 7.52861C10.7318 7.78896 10.7318 8.21107 10.4714 8.47141L6.47145 12.4714C6.2111 12.7318 5.78899 12.7318 5.52864 12.4714C5.26829 12.2111 5.26829 11.789 5.52864 11.5286L9.05723 8.00001L5.52864 4.47141C5.26829 4.21107 5.26829 3.78896 5.52864 3.52861Z" fill="#FC6D3E"/>
    </symbol>
    <symbol id="icon-music-note" width="32" height="32" viewBox="0 0 32 32" fill="none" xmlns="http://www.w3.org/2000/svg">
        <path d="M22.5 25C24.433 25 26 23.433 26 21.5C26 19.567 24.433 18 22.5 18C20.567 18 19 19.567 19 21.5C19 23.433 20.567 25 22.5 25Z" stroke="#FC6D3E" stroke-width="2" stroke-linecap="round" stroke-linejoin="round"/>
        <path d="M6.5 29C8.433 29 10 27.433 10 25.5C10 23.567 8.433 22 6.5 22C4.567 22 3 23.567 3 25.5C3 27.433 4.567 29 6.5 29Z" stroke="#FC6D3E" stroke-width="2" stroke-linecap="round" stroke-linejoin="round"/>
        <path d="M26 10L10 14" stroke="#FC6D3E" stroke-width="2" stroke-linecap="round" stroke-linejoin="round"/>
        <path d="M10 25.5V8L26 4V21.5" stroke="#FC6D3E" stroke-width="2" stroke-linecap="round" stroke-linejoin="round"/>
    </symbol>
</svg>